<?xml version="1.0" encoding="iso-8859-1"?>
<!-- Generator: Adobe Illustrator 19.0.0, SVG Export Plug-In . SVG Version: 6.00 Build 0)  -->
<svg version="1.1" id="Layer_1" xmlns="http://www.w3.org/2000/svg" xmlns:xlink="http://www.w3.org/1999/xlink" x="0px" y="0px"
	 viewBox="0 0 512 512" style="enable-background:new 0 0 512 512;" xml:space="preserve">
<circle style="fill:#273B7A;" cx="256" cy="256" r="256"/>
<path style="fill:#121149;" d="M256,223.534v193.914l-44.822,9.219l82.56,82.558c109.68-16.206,196.689-101.969,214.78-211.023
	l-138.74-138.74l-3.112,1.315l-37.664-38.15L256,223.534z"/>
<polygon style="fill:#FFFFFF;" points="266.343,262.896 369.778,159.461 142.222,159.461 245.657,262.896 245.657,405.98 
	211.178,405.98 211.178,426.667 300.822,426.667 300.822,405.98 266.343,405.98 "/>
<polygon style="fill:#D0D1D3;" points="266.343,262.896 369.778,159.461 255.857,159.461 255.857,426.667 300.822,426.667 
	300.822,405.98 266.343,405.98 "/>
<polygon style="fill:#FFC61B;" points="312.889,202.559 199.111,202.559 256,259.448 "/>
<polygon style="fill:#EAA22F;" points="312.889,202.559 255.857,202.559 255.857,259.305 256,259.448 "/>
<path style="fill:#FF314F;" d="M318.061,118.088c-8.556,0-15.515,6.959-15.515,15.515c0,3.986,1.524,7.613,4.001,10.362
	l-54.132,81.199c-1.321,1.979-0.784,4.656,1.195,5.977c0.734,0.49,1.565,0.724,2.388,0.724c1.393,0,2.76-0.674,3.589-1.919
	l54.281-81.42c1.336,0.376,2.739,0.591,4.194,0.591c8.556,0,15.515-6.959,15.515-15.515S326.616,118.088,318.061,118.088z"/>
<path style="fill:#A30F44;" d="M326.477,120.587l-73.152,110.32c0.097,0.078,0.179,0.164,0.284,0.234
	c0.734,0.49,1.565,0.724,2.388,0.724c1.393,0,2.76-0.674,3.589-1.919l54.281-81.42c1.336,0.376,2.739,0.591,4.194,0.591
	c8.556,0,15.515-6.959,15.515-15.515C333.576,128.15,330.742,123.354,326.477,120.587z"/>
<g>
</g>
<g>
</g>
<g>
</g>
<g>
</g>
<g>
</g>
<g>
</g>
<g>
</g>
<g>
</g>
<g>
</g>
<g>
</g>
<g>
</g>
<g>
</g>
<g>
</g>
<g>
</g>
<g>
</g>
</svg>
