<?xml version="1.0" encoding="iso-8859-1"?>
<!-- Generator: Adobe Illustrator 19.0.0, SVG Export Plug-In . SVG Version: 6.00 Build 0)  -->
<svg version="1.1" id="Layer_1" xmlns="http://www.w3.org/2000/svg" xmlns:xlink="http://www.w3.org/1999/xlink" x="0px" y="0px"
	 viewBox="0 0 512 512" style="enable-background:new 0 0 512 512;" xml:space="preserve">
<circle style="fill:#FF4F19;" cx="256" cy="256" r="256"/>
<path style="fill:#EE2600;" d="M512,256c0-30.37-5.302-59.499-15.008-86.529l-41.164-41.164l-5.408,30.192l-18.128-30.919h-0.166
	l-5.538,30.918L408.46,127.58l-2.833,56.368c0,9.24,4.796,17.408,12.018,22.153l7.285,7.396c-0.401,2.037-0.782,4.238-1.142,6.591
	l-62.13-62.076c-26.318-28.365-63.91-46.122-105.656-46.122c-46.793,0-88.37,22.308-114.695,56.863l-53.68-54.174
	c0,0-33.973-8.87-34.249,137l16.935,15.337c-0.774,20.488-3.573,83.796-1.735,112.996c0.485,7.702,2.969,12.987,5.992,15.633
	l107.226,105.514C205.283,508.165,230.192,512,256,512C397.385,512,512,397.385,512,256z"/>
<circle style="fill:#FFFFFF;" cx="256" cy="256" r="144.11"/>
<g>
	<path style="fill:#E1E1E3;" d="M400.109,256c0,79.59-64.519,144.109-144.109,144.109V111.891
		C335.59,111.891,400.109,176.41,400.109,256z"/>
	<circle style="fill:#E1E1E3;" cx="256" cy="256" r="98.02"/>
</g>
<path style="fill:#C8C6CC;" d="M354.015,256c0,54.132-43.882,98.015-98.015,98.015v-196.03
	C310.132,157.985,354.015,201.868,354.015,256z"/>
<path style="fill:#FFFFFF;" d="M53.375,251.581H64.18c5.129,0,6.32,2.753,6.32,9.21c0,6.457-4.044,85.462-1.924,119.124
	c1.384,21.979,19.049,24.333,19.049,1.667c0-19.276,0-267,0-267S53.652,105.711,53.375,251.581z"/>
<path style="fill:#E1E1E3;" d="M458.625,183.949l-2.797-55.641l-9.453,52.774h-4.5l-9.583-53.5h-0.167l-9.583,53.5h-4.5l-9.583-53.5
	l-2.833,56.368c0,12.379,8.603,22.841,20.125,25.715c-3.378,14.364-5.625,39.785-5.625,68.77c0,9.427-0.924,18.471-0.813,26.888
	c-0.072,3.604-2.438,92.202,12.813,92.202s12.426-88.13,12.354-91.734c0.112-8.418-0.354-17.928-0.354-27.355
	c0-28.985-2.247-54.406-5.625-68.77C450.021,206.79,458.625,196.327,458.625,183.949z"/>
<g>
</g>
<g>
</g>
<g>
</g>
<g>
</g>
<g>
</g>
<g>
</g>
<g>
</g>
<g>
</g>
<g>
</g>
<g>
</g>
<g>
</g>
<g>
</g>
<g>
</g>
<g>
</g>
<g>
</g>
</svg>
